<?xml version="1.0" encoding="utf-8"?>
<!-- Generator: Adobe Illustrator 23.1.0, SVG Export Plug-In . SVG Version: 6.00 Build 0)  -->
<svg version="1.1" id="Layer_1" xmlns="http://www.w3.org/2000/svg" xmlns:xlink="http://www.w3.org/1999/xlink" x="0px" y="0px"
	 viewBox="0 0 105 50" style="enable-background:new 0 0 105 50;" xml:space="preserve">
<style type="text/css">
	.st0{fill:#274067;}
	.st1{fill:#2E4681;}
	.st2{fill:#1380B9;}
	.st3{fill:#03A8CB;}
</style>
<g>
	<path class="st0" d="M3.5,0.7c0,0,1,2.3,2.2,5L8,10.7l-4,0c-2.2,0-4,0.1-4,0.1c0,0.1,0.7,1.3,1.5,2.7L3,16.1l3.8,0h3.8l0.2,0.3
		c0.1,0.2,3.3,7.5,7.2,16.3s7.1,16.1,7.2,16.3l0.1,0.3l7.2,0l7.2,0l5.8-12.7c3.2-7,5.8-12.7,5.8-12.7c0.1,0,4.4,9.7,4.4,9.9
		c0,0-1.8,0.1-4,0.1c-2.3,0-4,0-4,0.1c0,0.1,0.7,1.6,1.6,3.4l1.6,3.3l1.4,0c0.8,0,2.7,0,4.2,0.1l2.8,0.1l1.8,4.3l1.8,4.3l3.7,0
		c2,0,3.7,0,3.7-0.1c0-0.1-3.1-7-6.9-15.5l-6.9-15.4l-5.4,0l-5.4,0L39,33.6C35.4,42.1,32.4,49,32.3,49C32.3,49,17.7,16,17.7,15.8
		c0-0.1,16.6-0.1,36.8-0.1l36.8,0l-1.1-2.6l-1.1-2.6L87,10.4c-1.3,0-10.4-0.1-20.4-0.1c-10,0-25.6-0.1-34.8-0.1L15,10.2l-2.2-4.8
		l-2.2-4.8l-3.6,0C5.1,0.6,3.5,0.7,3.5,0.7z"/>
	<path class="st1" d="M61.8,18.4c0,0.1,1.7,3.8,3.6,8.2l3.6,8h3.7c3.5,0,3.7,0,3.6-0.2c0-0.1-1.7-3.8-3.7-8.2l-3.6-8h-3.6
		C62.2,18.3,61.8,18.3,61.8,18.4z"/>
	<path class="st2" d="M77.1,26.4l3.6,8.2l3.7,0c2,0,3.7,0,3.7,0s-1.6-3.7-3.6-8.2l-3.6-8.1l-3.6,0l-3.6,0L77.1,26.4z"/>
	<path class="st3" d="M88.4,26.4l3.6,8.2l3.7,0c2,0,3.7,0,3.7,0s-1.6-3.7-3.6-8.2l-3.6-8.1l-3.6,0l-3.6,0L88.4,26.4z"/>
	<path d="M73.7,39.1c0,0.3,0,0.4-0.4,0.4c-0.3,0-0.4,0-0.4,0.2s0.1,0.2,0.4,0.2h0.4V41c0,1.4,0.1,1.5,1.3,1.5c0.9,0,1.1-0.2,1.2-0.8
		c0.1-0.4,0-0.5-0.2-0.4c-0.1,0-0.2,0.1-0.3,0.3s-0.1,0.3-0.2,0.4c-0.2,0.2-1.1,0.2-1.3,0c-0.1-0.1-0.1-0.5-0.1-1.1v-0.9h1
		c0.9,0,1,0,1-0.2s-0.1-0.2-1-0.2h-1v-0.4c0-0.3,0-0.4-0.2-0.4S73.7,38.8,73.7,39.1z"/>
	<path d="M77.7,39.4c-0.3,0.1-0.7,0.4-0.7,0.6c0,0.2,0.6,0.1,0.7-0.1c0-0.1,0.3-0.2,1-0.2c1,0,1.2,0.1,1.4,0.8
		C80,41,80,41,79.7,40.9c-0.2,0-0.8-0.1-1.3-0.1c-1.2,0-1.5,0.2-1.5,0.9c0,0.6,0.3,0.8,1.4,0.9c0.7,0,0.9,0,1.3-0.1
		c0.3-0.1,0.4-0.2,0.5-0.1c0,0.1,0.1,0.1,0.3,0.1c0.2,0,0.2-0.1,0.2-1c0-1.1-0.2-1.7-0.5-2C79.7,39.4,78.1,39.3,77.7,39.4z
		 M79.8,41.5l0.3,0.2L79.8,42c-0.2,0.2-0.5,0.2-1.1,0.2c-0.9,0-1.3-0.1-1.3-0.5c0-0.4,0.3-0.5,1.2-0.5
		C79.3,41.2,79.6,41.3,79.8,41.5z"/>
	<path d="M82.4,39.4c-0.2,0-0.4,0.2-0.6,0.2c-0.2,0.1-0.3,0.1-0.3,0c0-0.1-0.1-0.2-0.2-0.2c-0.2,0-0.2,0.1-0.2,1.6
		c0,1.5,0,1.6,0.2,1.6s0.2-0.1,0.2-1.1c0-1,0-1.1,0.3-1.4c0.3-0.3,0.4-0.3,1.1-0.3c0.7,0,0.8,0,1,0.3c0.2,0.3,0.3,0.5,0.3,1.4
		c0,1,0,1.1,0.2,1.1c0.2,0,0.2-0.1,0.2-1.3c0-1.1,0-1.3-0.3-1.6c-0.2-0.3-0.4-0.3-1-0.4C83.1,39.3,82.6,39.3,82.4,39.4z"/>
	<path d="M86.4,39.4c-0.5,0.1-0.7,0.2-0.9,0.7c-0.3,0.8-0.1,2,0.4,2.3c0.4,0.3,1.8,0.4,2.3,0.1c0.4-0.2,0.5-0.2,0.5,0
		c0,0.4-0.5,0.6-1.5,0.6c-0.5,0-1-0.1-1-0.1c-0.1-0.2-0.6-0.1-0.5,0.1c0.1,0.3,0.9,0.6,1.9,0.5c1.6-0.1,1.7-0.4,1.7-2.7
		c0-1.4,0-1.5-0.2-1.5c-0.1,0-0.2,0-0.2,0.1c0,0.1-0.2,0-0.5-0.1C87.8,39.3,87,39.3,86.4,39.4z M88.4,40c0.2,0.2,0.3,0.3,0.3,1
		c0,1-0.2,1.2-1.4,1.2S85.9,42,85.9,41c0-0.6,0-0.8,0.3-1C86.6,39.7,88,39.7,88.4,40z"/>
	<path d="M90.9,39.4c-0.5,0.1-0.8,0.5-0.9,1.2c-0.2,1.3,0.2,1.9,1.3,2.1c1.2,0.2,2.3-0.1,2.3-0.6c0-0.2-0.3-0.2-0.6,0
		c-0.1,0.1-0.5,0.2-1.1,0.2c-1,0-1.3-0.2-1.4-0.8l-0.1-0.3h1.6h1.6v-0.5C93.5,39.6,92.4,39.1,90.9,39.4z M92.8,40
		c0.1,0.1,0.2,0.4,0.2,0.5c0,0.2-0.1,0.2-1.4,0.2c-1.3,0-1.3,0-1.3-0.3c0.1-0.5,0.5-0.7,1.4-0.7C92.4,39.8,92.6,39.8,92.8,40z"/>
	<path d="M95.2,39.5c-0.4,0.2-0.5,0.2-0.5,0.1c0-0.1-0.1-0.2-0.2-0.2c-0.2,0-0.2,0.1-0.2,1.6c0,1.5,0,1.6,0.2,1.6s0.2-0.1,0.2-1.2
		c0-1.5,0.1-1.7,1.3-1.6c0.6,0,0.8,0.1,0.9,0.3c0.1,0.2,0.2,0.3,0.3,0.3c0.3,0,0.3,0,0.1-0.5C97.1,39.3,96,39.1,95.2,39.5z"/>
	<path d="M83.8,47.1v2.1h0.3h0.3v-2.1V45h-0.3h-0.3V47.1z"/>
	<path d="M85.4,47.1v2.1h0.3H86v-2.1V45h-0.3h-0.3V47.1z"/>
	<path d="M87,45.3c0,0.2,0.1,0.2,0.3,0.2c0.2,0,0.3-0.1,0.3-0.2S87.5,45,87.3,45C87,45,87,45.1,87,45.3z"/>
	<path d="M80.1,46.1c-0.3,0.1-0.7,0.4-0.7,0.6c0,0.2,0.6,0.1,0.7-0.1c0-0.1,0.3-0.2,1-0.2c1,0,1.2,0.1,1.4,0.8
		c0.1,0.4,0.1,0.4-0.3,0.3c-0.2,0-0.8-0.1-1.3-0.1c-1.2,0-1.5,0.2-1.5,0.9c0,0.6,0.3,0.8,1.4,0.9c0.7,0,0.9,0,1.3-0.1
		c0.3-0.1,0.4-0.2,0.5-0.1c0,0.1,0.1,0.1,0.3,0.1c0.2,0,0.2-0.1,0.2-1c0-1.1-0.2-1.7-0.5-2C82.2,46.1,80.6,46,80.1,46.1z M82.2,48.2
		l0.3,0.2l-0.3,0.2c-0.2,0.2-0.5,0.2-1.1,0.2c-0.9,0-1.3-0.1-1.3-0.5c0-0.4,0.3-0.5,1.2-0.5C81.8,47.9,82,48,82.2,48.2z"/>
	<path d="M89.2,46.1c-0.3,0.1-0.7,0.4-0.7,0.6c0,0.2,0.6,0.1,0.7-0.1c0-0.1,0.3-0.2,1-0.2c1,0,1.2,0.1,1.4,0.8
		c0.1,0.4,0.1,0.4-0.3,0.3c-0.2,0-0.8-0.1-1.3-0.1c-1.2,0-1.5,0.2-1.5,0.9c0,0.6,0.3,0.8,1.4,0.9c0.7,0,0.9,0,1.3-0.1
		c0.3-0.1,0.4-0.2,0.5-0.1c0,0.1,0.1,0.1,0.3,0.1c0.2,0,0.2-0.1,0.2-1c0-1.1-0.2-1.7-0.5-2C91.3,46.1,89.7,46,89.2,46.1z M91.3,48.2
		l0.3,0.2l-0.3,0.2c-0.2,0.2-0.5,0.2-1.1,0.2c-0.9,0-1.3-0.1-1.3-0.5c0-0.4,0.3-0.5,1.2-0.5C90.9,47.9,91.1,48,91.3,48.2z"/>
	<path d="M94,46.1c-0.2,0-0.4,0.2-0.6,0.2c-0.2,0.1-0.3,0.1-0.3,0c0-0.1-0.1-0.2-0.2-0.2c-0.2,0-0.2,0.1-0.2,1.6
		c0,1.5,0,1.6,0.2,1.6s0.2-0.1,0.2-1.1c0-1,0-1.1,0.3-1.4c0.3-0.3,0.4-0.3,1.1-0.3c0.7,0,0.8,0,1,0.3c0.2,0.3,0.3,0.5,0.3,1.4
		c0,1,0,1.1,0.2,1.1c0.2,0,0.2-0.1,0.2-1.3c0-1.1,0-1.3-0.3-1.6c-0.2-0.3-0.4-0.3-1-0.4C94.6,46,94.2,46,94,46.1z"/>
	<path d="M97.8,46.1c-0.6,0.2-0.8,0.5-0.9,1.2c-0.1,0.8,0.1,1.4,0.5,1.7c0.6,0.5,2.5,0.4,2.9,0c0.3-0.3,0.3-0.7,0-0.7
		c-0.1,0-0.2,0.1-0.2,0.2c0,0.3-0.4,0.4-1.3,0.4c-1.1,0-1.4-0.2-1.4-1.2c0-1,0.2-1.2,1.5-1.2c0.8,0,0.9,0,1,0.2
		c0.2,0.3,0.6,0.3,0.6,0c0-0.5-0.4-0.7-1.4-0.7C98.6,46,98,46.1,97.8,46.1z"/>
	<path d="M102.2,46.1c-0.5,0.1-0.8,0.5-0.9,1.2c-0.2,1.3,0.2,1.9,1.3,2.1c1.2,0.2,2.3-0.1,2.3-0.6c0-0.2-0.3-0.2-0.6,0
		c-0.1,0.1-0.5,0.2-1.1,0.2c-1,0-1.3-0.2-1.4-0.8l-0.1-0.3h1.6h1.6v-0.5C104.8,46.3,103.7,45.7,102.2,46.1z M104.1,46.7
		c0.1,0.1,0.2,0.4,0.2,0.5c0,0.2-0.1,0.2-1.4,0.2c-1.3,0-1.3,0-1.3-0.3c0.1-0.5,0.5-0.7,1.4-0.7C103.7,46.5,103.9,46.5,104.1,46.7z"
		/>
	<path d="M87,47.7v1.6h0.3h0.3v-1.6v-1.6h-0.3H87V47.7z"/>
</g>
</svg>
